{
	"asset":{
		"version":"2.0",
		"generator":"Created using the official Cinema 4D glTF Exporter 1.000x284978"
	},
	"scenes":[{
		"nodes":[0,
		1,
		2,
		3]
	}],
	"nodes":[{
		"name":"Würfel.2",
		"translation":[-0.4019685983657837,
		0.06783672422170639,
		0.719542384147644],
		"rotation":[0.0,
		-0.006694347597658634,
		0.0,
		-0.9999775886535645],
		"scale":[1.0,
		1.0,
		1.0],
		"mesh":0
	},
	{
		"name":"Würfel.1",
		"translation":[0.5778065919876099,
		0.16456298530101777,
		0.47957685589790347],
		"rotation":[0.0,
		-0.23851154744625092,
		0.0,
		0.971139669418335],
		"scale":[1.0,
		1.0,
		1.0],
		"mesh":1
	},
	{
		"name":"Würfel",
		"translation":[0.0,
		0.1181042343378067,
		0.4792664349079132],
		"rotation":[0.0,
		-0.2661347985267639,
		0.0,
		-0.9639357924461365],
		"scale":[1.0,
		1.0,
		1.0],
		"mesh":2
	},
	{
		"name":"Laterne",
		"translation":[0.0,
		0.0,
		0.0],
		"rotation":[0.0,
		0.0,
		0.0,
		-1.0],
		"scale":[1.0,
		1.0,
		1.0],
		"mesh":3
	}],
	"meshes":[{
		"name":"Würfel.2",
		"primitives":[{
			"attributes":{
				"POSITION":1,
				"NORMAL":2,
				"TEXCOORD_0":3
			},
			"indices":0
		}]
	},
	{
		"name":"Würfel.1",
		"primitives":[{
			"attributes":{
				"POSITION":5,
				"NORMAL":6,
				"TEXCOORD_0":7
			},
			"indices":4
		}]
	},
	{
		"name":"Würfel",
		"primitives":[{
			"attributes":{
				"POSITION":9,
				"NORMAL":10,
				"TEXCOORD_0":11
			},
			"indices":8
		}]
	},
	{
		"name":"Laterne",
		"primitives":[{
			"attributes":{
				"POSITION":13,
				"NORMAL":14,
				"TEXCOORD_0":15
			},
			"indices":12
		}]
	}],
	"accessors":[{
		"bufferView":0,
		"type":"SCALAR",
		"componentType":5123,
		"count":36,
		"min":[0],
		"byteOffset":0,
		"max":[23]
	},
	{
		"bufferView":1,
		"type":"VEC3",
		"componentType":5126,
		"count":24,
		"min":[-0.05234811082482338,
		-0.05234811082482338,
		-0.05234811082482338],
		"byteOffset":0,
		"max":[0.05234811082482338,
		0.05234811082482338,
		0.05234811082482338]
	},
	{
		"bufferView":1,
		"type":"VEC3",
		"componentType":5126,
		"count":24,
		"min":[-1.0,
		-1.0,
		-1.0],
		"byteOffset":12,
		"max":[1.0,
		1.0,
		1.0]
	},
	{
		"bufferView":1,
		"type":"VEC2",
		"componentType":5126,
		"count":24,
		"min":[0.0,
		0.0],
		"byteOffset":24,
		"max":[1.0,
		1.0]
	},
	{
		"bufferView":2,
		"type":"SCALAR",
		"componentType":5123,
		"count":36,
		"min":[0],
		"byteOffset":0,
		"max":[23]
	},
	{
		"bufferView":3,
		"type":"VEC3",
		"componentType":5126,
		"count":24,
		"min":[-0.1496628224849701,
		-0.1496628224849701,
		-0.1496628224849701],
		"byteOffset":0,
		"max":[0.1496628224849701,
		0.1496628224849701,
		0.1496628224849701]
	},
	{
		"bufferView":3,
		"type":"VEC3",
		"componentType":5126,
		"count":24,
		"min":[-1.0,
		-1.0,
		-1.0],
		"byteOffset":12,
		"max":[1.0,
		1.0,
		1.0]
	},
	{
		"bufferView":3,
		"type":"VEC2",
		"componentType":5126,
		"count":24,
		"min":[0.0,
		0.0],
		"byteOffset":24,
		"max":[1.0,
		1.0]
	},
	{
		"bufferView":4,
		"type":"SCALAR",
		"componentType":5123,
		"count":36,
		"min":[0],
		"byteOffset":0,
		"max":[23]
	},
	{
		"bufferView":5,
		"type":"VEC3",
		"componentType":5126,
		"count":24,
		"min":[-0.10405077785253525,
		-0.10405077785253525,
		-0.10405077785253525],
		"byteOffset":0,
		"max":[0.10405077785253525,
		0.10405077785253525,
		0.10405077785253525]
	},
	{
		"bufferView":5,
		"type":"VEC3",
		"componentType":5126,
		"count":24,
		"min":[-1.0,
		-1.0,
		-1.0],
		"byteOffset":12,
		"max":[1.0,
		1.0,
		1.0]
	},
	{
		"bufferView":5,
		"type":"VEC2",
		"componentType":5126,
		"count":24,
		"min":[0.0,
		0.0],
		"byteOffset":24,
		"max":[1.0,
		1.0]
	},
	{
		"bufferView":6,
		"type":"SCALAR",
		"componentType":5123,
		"count":10560,
		"min":[0],
		"byteOffset":0,
		"max":[2043]
	},
	{
		"bufferView":7,
		"type":"VEC3",
		"componentType":5126,
		"count":2044,
		"min":[-0.987500011920929,
		-0.01468264777213335,
		-0.987500011920929],
		"byteOffset":0,
		"max":[0.987500011920929,
		1.5585601329803467,
		1.2768020629882813]
	},
	{
		"bufferView":7,
		"type":"VEC3",
		"componentType":5126,
		"count":2044,
		"min":[-1.0,
		-1.0,
		-0.998913049697876],
		"byteOffset":12,
		"max":[1.0,
		1.0,
		0.9999687075614929]
	},
	{
		"bufferView":7,
		"type":"VEC2",
		"componentType":5126,
		"count":2044,
		"min":[0.0,
		0.0],
		"byteOffset":24,
		"max":[1.0,
		1.0]
	}],
	"bufferViews":[{
		"buffer":0,
		"byteOffset":0,
		"byteLength":72,
		"target":34963
	},
	{
		"buffer":0,
		"byteOffset":72,
		"byteLength":768,
		"target":34962,
		"byteStride":32
	},
	{
		"buffer":1,
		"byteOffset":0,
		"byteLength":72,
		"target":34963
	},
	{
		"buffer":1,
		"byteOffset":72,
		"byteLength":768,
		"target":34962,
		"byteStride":32
	},
	{
		"buffer":2,
		"byteOffset":0,
		"byteLength":72,
		"target":34963
	},
	{
		"buffer":2,
		"byteOffset":72,
		"byteLength":768,
		"target":34962,
		"byteStride":32
	},
	{
		"buffer":3,
		"byteOffset":0,
		"byteLength":21120,
		"target":34963
	},
	{
		"buffer":3,
		"byteOffset":21120,
		"byteLength":65408,
		"target":34962,
		"byteStride":32
	}],
	"buffers":[{
		"uri":"data:application/octet-stream;base64,",
		"byteLength":840
	},
	{
		"uri":"data:application/octet-stream;base64,",
		"byteLength":840
	},
	{
		"uri":"data:application/octet-stream;base64,",
		"byteLength":840
	},
	{
		"uri":"data:application/octet-stream;base64,",
		"byteLength":86528
	}]
}